<svg width="223" height="396" viewBox="0 0 223 396" fill="none" xmlns="http://www.w3.org/2000/svg">
<rect width="222.146" height="396" rx="21.7317" fill="#4497C3"/>
<rect x="14.4878" y="31.3906" width="193.171" height="350.122" rx="16.9024" fill="#E9F5E9"/>
<path d="M72.0422 167.325C68.5941 167.325 66.0249 164.637 66.0249 161.24V161.206C66.0249 157.843 68.5434 155.088 72.1267 155.088C74.3071 155.088 75.6255 155.848 76.758 156.93L75.4227 158.468C74.4762 157.589 73.462 156.998 72.1098 156.998C69.8449 156.998 68.2053 158.857 68.2053 161.172V161.206C68.2053 163.522 69.8449 165.415 72.1098 165.415C73.5634 165.415 74.4931 164.823 75.5072 163.877L76.8425 165.229C75.6086 166.514 74.2564 167.325 72.0422 167.325ZM86.2788 167.122H84.2505V166.023C83.642 166.75 82.7124 167.308 81.3602 167.308C79.67 167.308 78.1825 166.345 78.1825 164.553V164.519C78.1825 162.542 79.7207 161.595 81.7997 161.595C82.8814 161.595 83.5744 161.747 84.2674 161.967V161.798C84.2674 160.564 83.4899 159.888 82.0701 159.888C81.0729 159.888 80.3292 160.108 79.5178 160.446L78.9601 158.806C79.9404 158.367 80.9038 158.062 82.3574 158.062C84.9942 158.062 86.2788 159.448 86.2788 161.832V167.122ZM84.3012 163.894V163.387C83.7773 163.184 83.0504 163.032 82.256 163.032C80.9714 163.032 80.2108 163.556 80.2108 164.418V164.451C80.2108 165.297 80.9714 165.77 81.9349 165.77C83.2871 165.77 84.3012 165.009 84.3012 163.894ZM88.8296 167.122V154.783H90.8748V167.122H88.8296ZM93.666 167.122V154.783H95.7112V167.122H93.666ZM98.4178 156.828V154.885H100.615V156.828H98.4178ZM98.5023 167.122V158.198H100.548V167.122H98.5023ZM103.22 167.122V158.198H105.266V159.584C105.84 158.738 106.668 158.012 108.054 158.012C110.066 158.012 111.232 159.364 111.232 161.443V167.122H109.187V162.051C109.187 160.665 108.494 159.871 107.277 159.871C106.094 159.871 105.266 160.699 105.266 162.085V167.122H103.22ZM117.674 169.86C116.203 169.86 114.834 169.488 113.685 168.795L114.446 167.257C115.392 167.849 116.406 168.204 117.623 168.204C119.449 168.204 120.446 167.257 120.446 165.466V164.773C119.702 165.736 118.773 166.412 117.302 166.412C115.206 166.412 113.245 164.857 113.245 162.237V162.203C113.245 159.567 115.223 158.012 117.302 158.012C118.806 158.012 119.736 158.705 120.429 159.533V158.198H122.474V165.297C122.474 166.801 122.085 167.916 121.342 168.66C120.53 169.472 119.28 169.86 117.674 169.86ZM117.843 164.688C119.263 164.688 120.463 163.674 120.463 162.237V162.203C120.463 160.733 119.263 159.736 117.843 159.736C116.423 159.736 115.308 160.716 115.308 162.187V162.22C115.308 163.691 116.44 164.688 117.843 164.688ZM134.234 167.207L129.315 155.29H131.614L135.18 164.384L138.73 155.29H140.978L136.059 167.207H134.234ZM142.473 156.828V154.885H144.67V156.828H142.473ZM142.558 167.122V158.198H144.603V167.122H142.558ZM154.763 167.122H152.735V166.023C152.127 166.75 151.197 167.308 149.845 167.308C148.155 167.308 146.667 166.345 146.667 164.553V164.519C146.667 162.542 148.205 161.595 150.284 161.595C151.366 161.595 152.059 161.747 152.752 161.967V161.798C152.752 160.564 151.974 159.888 150.555 159.888C149.557 159.888 148.814 160.108 148.002 160.446L147.445 158.806C148.425 158.367 149.388 158.062 150.842 158.062C153.479 158.062 154.763 159.448 154.763 161.832V167.122ZM152.786 163.894V163.387C152.262 163.184 151.535 163.032 150.741 163.032C149.456 163.032 148.695 163.556 148.695 164.418V164.451C148.695 165.297 149.456 165.77 150.419 165.77C151.772 165.77 152.786 165.009 152.786 163.894ZM69.5613 187.122V175.29H71.4882L77.8266 183.471V175.29H79.8718V187.122H78.1308L71.6065 178.705V187.122H69.5613ZM90.166 187.122H88.1378V186.023C87.5293 186.75 86.5996 187.308 85.2474 187.308C83.5572 187.308 82.0698 186.345 82.0698 184.553V184.519C82.0698 182.542 83.6079 181.595 85.6869 181.595C86.7687 181.595 87.4617 181.747 88.1547 181.967V181.798C88.1547 180.564 87.3771 179.888 85.9573 179.888C84.9601 179.888 84.2164 180.108 83.4051 180.446L82.8473 178.806C83.8276 178.367 84.7911 178.062 86.2447 178.062C88.8815 178.062 90.166 179.448 90.166 181.832V187.122ZM88.1885 183.894V183.387C87.6645 183.184 86.9377 183.032 86.1433 183.032C84.8587 183.032 84.0981 183.556 84.0981 184.418V184.451C84.0981 185.297 84.8587 185.77 85.8221 185.77C87.1743 185.77 88.1885 185.009 88.1885 183.894ZM92.5985 187.122V178.198H94.6437V179.55C95.2184 178.755 95.9959 178.012 97.365 178.012C98.6496 178.012 99.5454 178.637 100.019 179.584C100.746 178.637 101.692 178.012 103.044 178.012C104.988 178.012 106.171 179.246 106.171 181.426V187.122H104.126V182.051C104.126 180.632 103.467 179.871 102.317 179.871C101.202 179.871 100.407 180.648 100.407 182.085V187.122H98.3623V182.034C98.3623 180.648 97.6862 179.871 96.5537 179.871C95.4212 179.871 94.6437 180.716 94.6437 182.102V187.122H92.5985ZM112.75 187.325C110.163 187.325 108.169 185.449 108.169 182.694V182.66C108.169 180.108 109.978 178.012 112.53 178.012C115.369 178.012 116.806 180.243 116.806 182.812C116.806 182.998 116.789 183.184 116.772 183.387H110.214C110.434 184.84 111.465 185.652 112.783 185.652C113.781 185.652 114.491 185.28 115.2 184.587L116.4 185.652C115.555 186.666 114.389 187.325 112.75 187.325ZM110.197 182.034H114.778C114.643 180.716 113.865 179.685 112.513 179.685C111.262 179.685 110.383 180.648 110.197 182.034ZM122.004 187.122V177.217H118.252V175.29H127.852V177.217H124.1V187.122H122.004ZM127.524 187.122L132.73 175.206H134.657L139.863 187.122H137.666L136.466 184.266H130.871L129.654 187.122H127.524ZM131.631 182.423H135.705L133.66 177.691L131.631 182.423ZM146.777 187.325C143.076 187.325 140.642 184.688 140.642 181.24V181.206C140.642 177.893 143.177 175.088 146.743 175.088C148.805 175.088 150.073 175.662 151.29 176.693L149.972 178.265C149.059 177.488 148.163 176.998 146.659 176.998C144.478 176.998 142.822 178.907 142.822 181.172V181.206C142.822 183.64 144.428 185.432 146.845 185.432C147.96 185.432 148.975 185.077 149.701 184.536V182.322H146.676V180.513H151.713V185.483C150.546 186.48 148.873 187.325 146.777 187.325Z" fill="#181818"/>
<rect x="74.3962" y="204.195" width="72.1463" height="27.7683" rx="6.03659" fill="#7BBB2F"/>
<path d="M88.5974 223.079L89.0707 220.358H87.5494V218.6H89.3749L89.8651 215.659H88.1748V213.901H90.1693L90.6257 211.247H92.4342L91.9779 213.901H94.7499L95.1893 211.247H96.9979L96.5415 213.901H98.0459V215.659H96.2373L95.7471 218.6H97.4374V220.358H95.4429L94.9696 223.079H93.1611L93.6343 220.358H90.8623L90.406 223.079H88.5974ZM91.1666 218.6H93.9386L94.4456 215.659H91.6736L91.1666 218.6ZM103.154 223.079V213.174H99.4014V211.247H109.002V213.174H105.25V223.079H103.154ZM108.674 223.079L113.88 211.163H115.807L121.013 223.079H118.815L117.615 220.223H112.021L110.804 223.079H108.674ZM112.781 218.38H116.855L114.81 213.648L112.781 218.38ZM127.927 223.282C124.225 223.282 121.791 220.645 121.791 217.197V217.163C121.791 213.85 124.327 211.045 127.893 211.045C129.955 211.045 131.223 211.619 132.44 212.65L131.122 214.222C130.209 213.445 129.313 212.955 127.809 212.955C125.628 212.955 123.972 214.865 123.972 217.129V217.163C123.972 219.597 125.578 221.389 127.995 221.389C129.11 221.389 130.124 221.034 130.851 220.493V218.279H127.826V216.47H132.863V221.44C131.696 222.437 130.023 223.282 127.927 223.282Z" fill="white"/>
<rect x="72.439" y="55.5361" width="77.2683" height="77.2683" rx="38.6341" fill="#C0DFFA"/>
<path d="M111 94C115.142 94 118.5 90.6421 118.5 86.5C118.5 82.3579 115.142 79 111 79C106.858 79 103.5 82.3579 103.5 86.5C103.5 90.6421 106.858 94 111 94Z" fill="#0F3172"/>
<path d="M111 97.75C103.485 97.75 97.365 102.79 97.365 109C97.365 109.42 97.695 109.75 98.115 109.75H123.885C124.305 109.75 124.635 109.42 124.635 109C124.635 102.79 118.515 97.75 111 97.75Z" fill="#0F3172"/>
<rect x="91" y="312" width="40" height="40" rx="20" fill="#FF3B30"/>
<path d="M119.308 337.775C119.308 338.075 119.242 338.384 119.1 338.684C118.958 338.984 118.775 339.267 118.533 339.534C118.125 339.984 117.675 340.309 117.167 340.517C116.667 340.725 116.125 340.834 115.542 340.834C114.692 340.834 113.783 340.634 112.825 340.225C111.867 339.817 110.908 339.267 109.958 338.575C109 337.875 108.092 337.1 107.225 336.242C106.367 335.375 105.592 334.467 104.9 333.517C104.217 332.567 103.667 331.617 103.267 330.675C102.867 329.725 102.667 328.817 102.667 327.95C102.667 327.384 102.767 326.842 102.967 326.342C103.167 325.834 103.483 325.367 103.925 324.95C104.458 324.425 105.042 324.167 105.658 324.167C105.892 324.167 106.125 324.217 106.333 324.317C106.55 324.417 106.742 324.567 106.892 324.784L108.825 327.509C108.975 327.717 109.083 327.909 109.158 328.092C109.233 328.267 109.275 328.442 109.275 328.6C109.275 328.8 109.217 329 109.1 329.192C108.992 329.384 108.833 329.584 108.633 329.784L108 330.442C107.908 330.534 107.867 330.642 107.867 330.775C107.867 330.842 107.875 330.9 107.892 330.967C107.917 331.034 107.942 331.084 107.958 331.134C108.108 331.409 108.367 331.767 108.733 332.2C109.108 332.634 109.508 333.075 109.942 333.517C110.392 333.959 110.825 334.367 111.267 334.742C111.7 335.109 112.058 335.359 112.342 335.509C112.383 335.525 112.433 335.55 112.492 335.575C112.558 335.6 112.625 335.609 112.7 335.609C112.842 335.609 112.95 335.559 113.042 335.467L113.675 334.842C113.883 334.634 114.083 334.475 114.275 334.375C114.467 334.259 114.658 334.2 114.867 334.2C115.025 334.2 115.192 334.234 115.375 334.309C115.558 334.384 115.75 334.492 115.958 334.634L118.717 336.592C118.933 336.742 119.083 336.917 119.175 337.125C119.258 337.334 119.308 337.542 119.308 337.775Z" fill="white"/>
<rect x="67.6096" y="9.6582" width="86.9268" height="14.4878" rx="7.2439" fill="#3164BD"/>
</svg>
