<svg width="223" height="396" viewBox="0 0 223 396" fill="none" xmlns="http://www.w3.org/2000/svg">
<rect width="222.146" height="396" rx="21.7317" fill="#95C344"/>
<rect x="14.4878" y="31.3906" width="193.171" height="350.122" rx="16.9024" fill="#E9F5E9"/>
<rect x="14.4878" y="31.3906" width="193.171" height="350.122" rx="16.9024" fill="white"/>
<path d="M54.0069 167.122V155.29H56.0859V167.122H54.0069ZM59.0165 167.122V158.198H61.0617V159.584C61.6364 158.738 62.4646 158.012 63.8506 158.012C65.862 158.012 67.0283 159.364 67.0283 161.443V167.122H64.9831V162.051C64.9831 160.665 64.2901 159.871 63.0731 159.871C61.8899 159.871 61.0617 160.699 61.0617 162.085V167.122H59.0165ZM73.6222 167.325C70.9685 167.325 69.0078 165.246 69.0078 162.711V162.677C69.0078 160.141 70.9685 158.012 73.6391 158.012C75.3293 158.012 76.3773 158.637 77.2055 159.55L75.9378 160.919C75.3124 160.26 74.6532 159.803 73.6222 159.803C72.1348 159.803 71.053 161.088 71.053 162.643V162.677C71.053 164.266 72.1517 165.55 73.7236 165.55C74.687 165.55 75.397 165.094 76.0392 164.435L77.2731 165.652C76.3942 166.632 75.3631 167.325 73.6222 167.325ZM83.1491 167.325C80.4278 167.325 78.4164 165.246 78.4164 162.711V162.677C78.4164 160.124 80.4447 158.012 83.1829 158.012C85.9211 158.012 87.9325 160.091 87.9325 162.643V162.677C87.9325 165.212 85.9042 167.325 83.1491 167.325ZM83.1829 165.55C84.8393 165.55 85.8873 164.249 85.8873 162.711V162.677C85.8873 161.105 84.7548 159.803 83.1491 159.803C81.5096 159.803 80.4616 161.088 80.4616 162.643V162.677C80.4616 164.232 81.5941 165.55 83.1829 165.55ZM90.0153 167.122V158.198H92.0605V159.55C92.6352 158.755 93.4127 158.012 94.7818 158.012C96.0664 158.012 96.9622 158.637 97.4355 159.584C98.1623 158.637 99.1088 158.012 100.461 158.012C102.405 158.012 103.588 159.246 103.588 161.426V167.122H101.543V162.051C101.543 160.632 100.884 159.871 99.7342 159.871C98.6187 159.871 97.8242 160.648 97.8242 162.085V167.122H95.779V162.034C95.779 160.648 95.103 159.871 93.9705 159.871C92.838 159.871 92.0605 160.716 92.0605 162.102V167.122H90.0153ZM106.11 156.828V154.885H108.307V156.828H106.11ZM106.194 167.122V158.198H108.239V167.122H106.194ZM110.912 167.122V158.198H112.957V159.584C113.532 158.738 114.36 158.012 115.746 158.012C117.758 158.012 118.924 159.364 118.924 161.443V167.122H116.879V162.051C116.879 160.665 116.186 159.871 114.969 159.871C113.786 159.871 112.957 160.699 112.957 162.085V167.122H110.912ZM125.366 169.86C123.895 169.86 122.526 169.488 121.377 168.795L122.137 167.257C123.084 167.849 124.098 168.204 125.315 168.204C127.141 168.204 128.138 167.257 128.138 165.466V164.773C127.394 165.736 126.465 166.412 124.994 166.412C122.898 166.412 120.937 164.857 120.937 162.237V162.203C120.937 159.567 122.915 158.012 124.994 158.012C126.498 158.012 127.428 158.705 128.121 159.533V158.198H130.166V165.297C130.166 166.801 129.777 167.916 129.034 168.66C128.222 169.472 126.972 169.86 125.366 169.86ZM125.535 164.688C126.955 164.688 128.155 163.674 128.155 162.237V162.203C128.155 160.733 126.955 159.736 125.535 159.736C124.115 159.736 123 160.716 123 162.187V162.22C123 163.691 124.132 164.688 125.535 164.688ZM143.514 167.325C140.066 167.325 137.497 164.637 137.497 161.24V161.206C137.497 157.843 140.016 155.088 143.599 155.088C145.779 155.088 147.098 155.848 148.23 156.93L146.895 158.468C145.948 157.589 144.934 156.998 143.582 156.998C141.317 156.998 139.678 158.857 139.678 161.172V161.206C139.678 163.522 141.317 165.415 143.582 165.415C145.036 165.415 145.965 164.823 146.979 163.877L148.315 165.229C147.081 166.514 145.729 167.325 143.514 167.325ZM157.751 167.122H155.723V166.023C155.114 166.75 154.185 167.308 152.832 167.308C151.142 167.308 149.655 166.345 149.655 164.553V164.519C149.655 162.542 151.193 161.595 153.272 161.595C154.354 161.595 155.047 161.747 155.74 161.967V161.798C155.74 160.564 154.962 159.888 153.542 159.888C152.545 159.888 151.801 160.108 150.99 160.446L150.432 158.806C151.413 158.367 152.376 158.062 153.83 158.062C156.466 158.062 157.751 159.448 157.751 161.832V167.122ZM155.773 163.894V163.387C155.249 163.184 154.523 163.032 153.728 163.032C152.444 163.032 151.683 163.556 151.683 164.418V164.451C151.683 165.297 152.444 165.77 153.407 165.77C154.759 165.77 155.773 165.009 155.773 163.894ZM160.302 167.122V154.783H162.347V167.122H160.302ZM165.138 167.122V154.783H167.183V167.122H165.138ZM57.3804 187.207L52.4618 175.29H54.7605L58.3269 184.384L61.8765 175.29H64.1245L59.2059 187.207H57.3804ZM65.6198 176.828V174.885H67.8171V176.828H65.6198ZM65.7043 187.122V178.198H67.7495V187.122H65.7043ZM77.9101 187.122H75.8818V186.023C75.2734 186.75 74.3437 187.308 72.9915 187.308C71.3013 187.308 69.8139 186.345 69.8139 184.553V184.519C69.8139 182.542 71.352 181.595 73.431 181.595C74.5127 181.595 75.2057 181.747 75.8987 181.967V181.798C75.8987 180.564 75.1212 179.888 73.7014 179.888C72.7042 179.888 71.9605 180.108 71.1492 180.446L70.5914 178.806C71.5717 178.367 72.5352 178.062 73.9888 178.062C76.6255 178.062 77.9101 179.448 77.9101 181.832V187.122ZM75.9325 183.894V183.387C75.4086 183.184 74.6818 183.032 73.8874 183.032C72.6028 183.032 71.8422 183.556 71.8422 184.418V184.451C71.8422 185.297 72.6028 185.77 73.5662 185.77C74.9184 185.77 75.9325 185.009 75.9325 183.894ZM85.6467 187.122V175.29H87.5736L93.912 183.471V175.29H95.9572V187.122H94.2162L87.6919 178.705V187.122H85.6467ZM106.251 187.122H104.223V186.023C103.615 186.75 102.685 187.308 101.333 187.308C99.6426 187.308 98.1552 186.345 98.1552 184.553V184.519C98.1552 182.542 99.6933 181.595 101.772 181.595C102.854 181.595 103.547 181.747 104.24 181.967V181.798C104.24 180.564 103.463 179.888 102.043 179.888C101.045 179.888 100.302 180.108 99.4905 180.446L98.9327 178.806C99.913 178.367 100.876 178.062 102.33 178.062C104.967 178.062 106.251 179.448 106.251 181.832V187.122ZM104.274 183.894V183.387C103.75 183.184 103.023 183.032 102.229 183.032C100.944 183.032 100.183 183.556 100.183 184.418V184.451C100.183 185.297 100.944 185.77 101.908 185.77C103.26 185.77 104.274 185.009 104.274 183.894ZM108.684 187.122V178.198H110.729V179.55C111.304 178.755 112.081 178.012 113.45 178.012C114.735 178.012 115.631 178.637 116.104 179.584C116.831 178.637 117.777 178.012 119.13 178.012C121.073 178.012 122.257 179.246 122.257 181.426V187.122H120.211V182.051C120.211 180.632 119.552 179.871 118.403 179.871C117.287 179.871 116.493 180.648 116.493 182.085V187.122H114.448V182.034C114.448 180.648 113.772 179.871 112.639 179.871C111.507 179.871 110.729 180.716 110.729 182.102V187.122H108.684ZM128.835 187.325C126.249 187.325 124.254 185.449 124.254 182.694V182.66C124.254 180.108 126.063 178.012 128.615 178.012C131.455 178.012 132.892 180.243 132.892 182.812C132.892 182.998 132.875 183.184 132.858 183.387H126.3C126.519 184.84 127.55 185.652 128.869 185.652C129.866 185.652 130.576 185.28 131.286 184.587L132.486 185.652C131.641 186.666 130.474 187.325 128.835 187.325ZM126.283 182.034H130.863C130.728 180.716 129.95 179.685 128.598 179.685C127.348 179.685 126.469 180.648 126.283 182.034ZM138.089 187.122V177.217H134.337V175.29H143.938V177.217H140.185V187.122H138.089ZM143.61 187.122L148.815 175.206H150.742L155.948 187.122H153.751L152.551 184.266H146.956L145.739 187.122H143.61ZM147.717 182.423H151.79L149.745 177.691L147.717 182.423ZM162.863 187.325C159.161 187.325 156.727 184.688 156.727 181.24V181.206C156.727 177.893 159.262 175.088 162.829 175.088C164.891 175.088 166.159 175.662 167.376 176.693L166.057 178.265C165.144 177.488 164.249 176.998 162.744 176.998C160.564 176.998 158.907 178.907 158.907 181.172V181.206C158.907 183.64 160.513 185.432 162.93 185.432C164.046 185.432 165.06 185.077 165.787 184.536V182.322H162.761V180.513H167.798V185.483C166.632 186.48 164.958 187.325 162.863 187.325Z" fill="#181818"/>
<rect x="75.8962" y="204.195" width="69.1463" height="27.7683" rx="6.03659" fill="#7BBB2F"/>
<path d="M90.1655 223.079L90.6388 220.358H89.1175V218.6H90.943L91.4332 215.659H89.7429V213.901H91.7374L92.1938 211.247H94.0023L93.546 213.901H96.318L96.7574 211.247H98.566L98.1096 213.901H99.614V215.659H97.8054L97.3152 218.6H99.0055V220.358H97.011L96.5377 223.079H94.7292L95.2024 220.358H92.4304L91.9741 223.079H90.1655ZM92.7347 218.6H95.5067L96.0137 215.659H93.2417L92.7347 218.6ZM105.618 223.248C103.032 223.248 101.105 221.896 101.105 219.868V219.834C101.105 218.397 101.899 217.501 103.234 216.944C102.237 216.42 101.51 215.625 101.51 214.307V214.273C101.51 212.464 103.251 211.078 105.618 211.078C107.984 211.078 109.725 212.447 109.725 214.273V214.307C109.725 215.625 108.998 216.42 108.001 216.944C109.285 217.535 110.131 218.38 110.131 219.783V219.817C110.131 221.93 108.204 223.248 105.618 223.248ZM105.618 216.251C106.835 216.251 107.73 215.524 107.73 214.51V214.476C107.73 213.563 106.885 212.819 105.618 212.819C104.35 212.819 103.505 213.563 103.505 214.459V214.493C103.505 215.524 104.401 216.251 105.618 216.251ZM105.618 221.507C107.173 221.507 108.102 220.713 108.102 219.732V219.699C108.102 218.617 107.021 217.907 105.618 217.907C104.215 217.907 103.133 218.617 103.133 219.699V219.732C103.133 220.696 104.063 221.507 105.618 221.507ZM111.768 223.079V221.44L115.842 217.975C117.464 216.605 118.056 215.845 118.056 214.78C118.056 213.614 117.228 212.938 116.146 212.938C115.064 212.938 114.32 213.529 113.408 214.712L111.937 213.563C113.07 211.974 114.185 211.078 116.298 211.078C118.614 211.078 120.202 212.498 120.202 214.611V214.645C120.202 216.504 119.222 217.518 117.126 219.225L114.692 221.254H120.321V223.079H111.768ZM127.94 223.079V220.425H121.973L121.584 218.938L128.159 211.163H129.934V218.718H131.624V220.425H129.934V223.079H127.94ZM124.052 218.718H127.94V214.036L124.052 218.718Z" fill="white"/>
<rect x="72.439" y="55.5361" width="77.2683" height="77.2683" rx="38.6341" fill="#CAE5CA"/>
<path d="M111.329 94C115.471 94 118.829 90.6421 118.829 86.5C118.829 82.3579 115.471 79 111.329 79C107.187 79 103.829 82.3579 103.829 86.5C103.829 90.6421 107.187 94 111.329 94Z" fill="#387C35"/>
<path d="M111.329 97.75C103.814 97.75 97.6943 102.79 97.6943 109C97.6943 109.42 98.0243 109.75 98.4443 109.75H124.214C124.634 109.75 124.964 109.42 124.964 109C124.964 102.79 118.844 97.75 111.329 97.75Z" fill="#387C35"/>
<rect x="48.3293" y="312" width="40" height="40" rx="20" fill="#FF3B30"/>
<path d="M58.6546 334.303C58.4502 334.083 58.2888 333.812 58.1879 333.496C58.0871 333.18 58.0281 332.848 58.0232 332.488C58.0153 331.88 58.123 331.336 58.353 330.837C58.5768 330.344 58.8993 329.895 59.3262 329.497C59.9481 328.918 60.7491 328.445 61.7286 328.091C62.7082 327.736 63.7843 327.486 64.9509 327.344C66.1292 327.203 67.3221 327.151 68.5413 327.189C69.7601 327.238 70.9463 327.374 72.1 327.598C73.2475 327.827 74.2975 328.147 75.232 328.564C76.1722 328.986 76.9377 329.515 77.5284 330.149C77.9147 330.563 78.2107 331.028 78.4052 331.53C78.6053 332.038 78.6917 332.596 78.6525 333.202C78.6201 333.949 78.3694 334.536 77.9181 334.956C77.7474 335.115 77.5426 335.238 77.322 335.306C77.0953 335.381 76.8528 335.402 76.5954 335.346L73.3233 334.669C73.0716 334.619 72.8616 334.553 72.6818 334.47C72.5076 334.393 72.3579 334.293 72.25 334.177C72.1136 334.031 72.02 333.845 71.9747 333.625C71.9233 333.411 71.9029 333.157 71.9129 332.874L71.9276 331.961C71.9322 331.831 71.8888 331.724 71.7979 331.626C71.7525 331.577 71.7066 331.54 71.649 331.503C71.5853 331.471 71.5329 331.451 71.4866 331.426C71.1894 331.327 70.7562 331.241 70.1925 331.174C69.6227 331.113 69.029 331.062 68.4109 331.034C67.7806 331.018 67.1852 331.014 66.6064 331.041C66.0394 331.068 65.6068 331.129 65.2972 331.213C65.2554 331.229 65.2018 331.245 65.142 331.266C65.0762 331.293 65.0218 331.333 64.9669 331.384C64.8632 331.48 64.818 331.591 64.8134 331.72L64.776 332.609C64.7656 332.904 64.7272 333.156 64.6551 333.36C64.5944 333.576 64.4939 333.749 64.3414 333.891C64.2256 333.999 64.0809 334.088 63.8956 334.158C63.7104 334.228 63.4963 334.28 63.2473 334.318L59.8941 334.765C59.6334 334.803 59.4043 334.777 59.1952 334.687C58.9923 334.592 58.8137 334.473 58.6546 334.303Z" fill="white"/>
<rect x="133.329" y="312" width="40" height="40" rx="20" fill="#1FDA25"/>
<path d="M161.638 337.775C161.638 338.075 161.571 338.384 161.429 338.684C161.288 338.984 161.104 339.267 160.863 339.534C160.454 339.984 160.004 340.309 159.496 340.517C158.996 340.725 158.454 340.834 157.871 340.834C157.021 340.834 156.113 340.634 155.154 340.225C154.196 339.817 153.238 339.267 152.288 338.575C151.329 337.875 150.421 337.1 149.554 336.242C148.696 335.375 147.921 334.467 147.229 333.517C146.546 332.567 145.996 331.617 145.596 330.675C145.196 329.725 144.996 328.817 144.996 327.95C144.996 327.384 145.096 326.842 145.296 326.342C145.496 325.834 145.813 325.367 146.254 324.95C146.788 324.425 147.371 324.167 147.988 324.167C148.221 324.167 148.454 324.217 148.663 324.317C148.879 324.417 149.071 324.567 149.221 324.784L151.154 327.509C151.304 327.717 151.413 327.909 151.488 328.092C151.563 328.267 151.604 328.442 151.604 328.6C151.604 328.8 151.546 329 151.429 329.192C151.321 329.384 151.163 329.584 150.963 329.784L150.329 330.442C150.238 330.534 150.196 330.642 150.196 330.775C150.196 330.842 150.204 330.9 150.221 330.967C150.246 331.034 150.271 331.084 150.288 331.134C150.438 331.409 150.696 331.767 151.063 332.2C151.438 332.634 151.838 333.075 152.271 333.517C152.721 333.959 153.154 334.367 153.596 334.742C154.029 335.109 154.388 335.359 154.671 335.509C154.713 335.525 154.763 335.55 154.821 335.575C154.888 335.6 154.954 335.609 155.029 335.609C155.171 335.609 155.279 335.559 155.371 335.467L156.004 334.842C156.213 334.634 156.413 334.475 156.604 334.375C156.796 334.259 156.988 334.2 157.196 334.2C157.354 334.2 157.521 334.234 157.704 334.309C157.888 334.384 158.079 334.492 158.288 334.634L161.046 336.592C161.263 336.742 161.413 336.917 161.504 337.125C161.588 337.334 161.638 337.542 161.638 337.775Z" fill="white"/>
<rect x="67.6099" y="9.6582" width="86.9268" height="14.4878" rx="7.2439" fill="#387C35"/>
</svg>
