<svg width="64" height="64" viewBox="0 0 64 64" fill="none" xmlns="http://www.w3.org/2000/svg">
<rect x="1.31806" y="1.31769" width="60.6304" height="60.6304" rx="12.3646" fill="#E3F2FD"/>
<rect x="1.31806" y="1.31769" width="60.6304" height="60.6304" rx="12.3646" stroke="white" stroke-width="2.6361"/>
<path d="M21.6361 31.6357C21.6361 27.8645 21.6361 25.9789 22.8077 24.8073C23.9793 23.6357 25.8649 23.6357 29.6361 23.6357H33.6361C37.4073 23.6357 39.293 23.6357 40.4645 24.8073C41.6361 25.9789 41.6361 27.8645 41.6361 31.6357V33.6357C41.6361 37.407 41.6361 39.2926 40.4645 40.4642C39.293 41.6357 37.4073 41.6357 33.6361 41.6357H29.6361C25.8649 41.6357 23.9793 41.6357 22.8077 40.4642C21.6361 39.2926 21.6361 37.407 21.6361 33.6357V31.6357Z" stroke="#2F77C8" stroke-width="1.5"/>
<path d="M26.6361 23.6357V22.1357" stroke="#2F77C8" stroke-width="1.5" stroke-linecap="round"/>
<path d="M36.6361 23.6357V22.1357" stroke="#2F77C8" stroke-width="1.5" stroke-linecap="round"/>
<circle cx="36.1361" cy="36.1357" r="1.5" stroke="#2F77C8" stroke-width="1.5"/>
<path d="M22.1361 28.6357H41.1361" stroke="#2F77C8" stroke-width="1.5" stroke-linecap="round"/>
</svg>
