<svg width="64" height="64" viewBox="0 0 64 64" fill="none" xmlns="http://www.w3.org/2000/svg">
<rect x="1.31793" y="1.31769" width="60.6304" height="60.6304" rx="12.3646" fill="#E8F5D7"/>
<rect x="1.31793" y="1.31769" width="60.6304" height="60.6304" rx="12.3646" stroke="white" stroke-width="2.6361"/>
<path d="M32.646 22.5561L38.546 25.1761C40.246 25.9261 40.246 27.1661 38.546 27.9161L32.646 30.5361C31.976 30.8361 30.876 30.8361 30.206 30.5361L24.306 27.9161C22.606 27.1661 22.606 25.9261 24.306 25.1761L30.206 22.5561C30.876 22.2561 31.976 22.2561 32.646 22.5561Z" stroke="#8CC744" stroke-width="1.5" stroke-linecap="round" stroke-linejoin="round"/>
<path d="M22.636 30.6357C22.636 31.4757 23.266 32.4457 24.036 32.7857L30.826 35.8057C31.346 36.0357 31.936 36.0357 32.446 35.8057L39.236 32.7857C40.006 32.4457 40.636 31.4757 40.636 30.6357" stroke="#8CC744" stroke-width="1.5" stroke-linecap="round" stroke-linejoin="round"/>
<path d="M22.636 35.6357C22.636 36.5657 23.186 37.4057 24.036 37.7857L30.826 40.8057C31.346 41.0357 31.936 41.0357 32.446 40.8057L39.236 37.7857C40.086 37.4057 40.636 36.5657 40.636 35.6357" stroke="#8CC744" stroke-width="1.5" stroke-linecap="round" stroke-linejoin="round"/>
</svg>
