<svg width="64" height="64" viewBox="0 0 64 64" fill="none" xmlns="http://www.w3.org/2000/svg">
<rect x="1.31793" y="1.31769" width="60.6304" height="60.6304" rx="12.3646" fill="#E8F5D7"/>
<rect x="1.31793" y="1.31769" width="60.6304" height="60.6304" rx="12.3646" stroke="white" stroke-width="2.6361"/>
<path d="M35.2159 32.0927C35.2159 34.0727 33.6159 35.6727 31.6359 35.6727C29.6559 35.6727 28.0559 34.0727 28.0559 32.0927C28.0559 30.1127 29.6559 28.5127 31.6359 28.5127C33.6159 28.5127 35.2159 30.1127 35.2159 32.0927Z" stroke="#8CC744" stroke-width="1.5" stroke-linecap="round" stroke-linejoin="round"/>
<path d="M31.6361 40.3625C35.1661 40.3625 38.4561 38.2825 40.7461 34.6825C41.6461 33.2725 41.6461 30.9025 40.7461 29.4925C38.4561 25.8925 35.1661 23.8125 31.6361 23.8125C28.1061 23.8125 24.8161 25.8925 22.5261 29.4925C21.6261 30.9025 21.6261 33.2725 22.5261 34.6825C24.8161 38.2825 28.1061 40.3625 31.6361 40.3625Z" stroke="#8CC744" stroke-width="1.5" stroke-linecap="round" stroke-linejoin="round"/>
</svg>
