<svg width="64" height="64" viewBox="0 0 64 64" fill="none" xmlns="http://www.w3.org/2000/svg">
<rect x="1.31793" y="1.31769" width="60.6304" height="60.6304" rx="12.3646" fill="#E3F2FD"/>
<rect x="1.31793" y="1.31769" width="60.6304" height="60.6304" rx="12.3646" stroke="white" stroke-width="2.6361"/>
<path d="M22.3862 21.6357C22.3862 21.2215 22.0504 20.8857 21.6362 20.8857C21.222 20.8857 20.8862 21.2215 20.8862 21.6357V31.6931C20.8862 34.0015 20.8862 35.8106 21.076 37.222C21.2702 38.6668 21.6756 39.8068 22.5704 40.7016C23.4652 41.5964 24.6052 42.0018 26.0499 42.196C27.4614 42.3858 29.2705 42.3858 31.5789 42.3857H41.6362C42.0504 42.3857 42.3862 42.05 42.3862 41.6357C42.3862 41.2215 42.0504 40.8857 41.6362 40.8857H31.6362C29.258 40.8857 27.5498 40.8841 26.2498 40.7094C24.9714 40.5375 24.2007 40.2106 23.631 39.6409C23.0614 39.0713 22.7345 38.3006 22.5626 37.0222C22.3878 35.7222 22.3862 34.014 22.3862 31.6357V21.6357Z" fill="#2F77C8"/>
<path d="M39.2238 27.1022C39.4814 26.7778 39.4272 26.306 39.1028 26.0484C38.7785 25.7908 38.3067 25.845 38.0491 26.1694L34.9311 30.0958C34.6858 30.4046 34.5249 30.6065 34.3924 30.752C34.2628 30.8943 34.2019 30.9347 34.1742 30.9495C33.9635 31.0622 33.7116 31.0676 33.4962 30.9642C33.4678 30.9506 33.4053 30.913 33.2696 30.7764C33.1309 30.6369 32.9614 30.4421 32.7029 30.1442L32.6868 30.1256C32.4489 29.8515 32.246 29.6176 32.0671 29.4376C31.8811 29.2505 31.6776 29.0759 31.4257 28.955C30.7793 28.6447 30.0237 28.6612 29.3914 28.9992C29.145 29.1309 28.9493 29.3142 28.7716 29.5093C28.6007 29.6969 28.4082 29.9393 28.1825 30.2236L25.0489 34.1694C24.7913 34.4937 24.8455 34.9655 25.1698 35.2231C25.4942 35.4807 25.966 35.4266 26.2236 35.1022L29.3418 31.1757C29.587 30.8669 29.7479 30.665 29.8804 30.5195C30.0101 30.3772 30.0709 30.3368 30.0986 30.322C30.3094 30.2094 30.5612 30.2039 30.7767 30.3073C30.805 30.3209 30.8675 30.3585 31.0032 30.4951C31.142 30.6346 31.3115 30.8294 31.5699 31.1273L31.5861 31.1459C31.8239 31.42 32.0268 31.6539 32.2058 31.8339C32.3918 32.0211 32.5952 32.1957 32.8472 32.3166C33.4936 32.6268 34.2491 32.6103 34.8814 32.2723C35.1279 32.1406 35.3235 31.9573 35.5012 31.7622C35.6722 31.5746 35.8646 31.3322 36.0904 31.048L39.2238 27.1022Z" fill="#2F77C8"/>
</svg>
