<svg width="64" height="64" viewBox="0 0 64 64" fill="none" xmlns="http://www.w3.org/2000/svg">
<rect x="1.31806" y="1.31769" width="60.6304" height="60.6304" rx="12.3646" fill="#E8F5D7"/>
<rect x="1.31806" y="1.31769" width="60.6304" height="60.6304" rx="12.3646" stroke="white" stroke-width="2.6361"/>
<path d="M22.6364 27.8357V35.4357C22.6364 36.1357 23.0364 36.8357 23.6364 37.1357L30.6364 41.0357C31.2364 41.3357 31.9364 41.3357 32.5364 41.0357L39.5364 37.1357C40.1364 36.7357 40.5364 36.1357 40.5364 35.4357V27.8357C40.5364 27.1357 40.1364 26.4357 39.5364 26.1357L32.5364 22.2357C31.9364 21.9357 31.2364 21.9357 30.6364 22.2357L23.6364 26.0357C23.0364 26.4357 22.6364 27.1357 22.6364 27.8357Z" stroke="#8CC744" stroke-width="1.5" stroke-miterlimit="10" stroke-linecap="round" stroke-linejoin="round"/>
</svg>
